# xmcd CD database file
# Copyright (C) 1993-1996 Ti Kan
#
# Track frame offsets:
#  182
#  13527
#  23042
#  38452
#  51862
#  69827
#  81520
#  97512
#  113077
#  131505
#  141877
#  157995
#  173437
#  180055
#
# Disc length: 2582 seconds
#
# Revision: 14
# Processed by: cddbd v1.5.2PL0 Copyright (c) Steve Scherf et al.
# Submitted via: Advanced CD Ripper Pro 2.0
#
DISCID=940a140e
DTITLE=Brooks, Garth - The Magic Of Christmas
DYEAR=1999
DGENRE=Country
TTITLE0=It's The Most Wonderful Time Of The Year
TTITLE1=Let It Snow
TTITLE2=The Christmas Song
TTITLE3=White Christmas
TTITLE4=Baby Jesus Is Born
TTITLE5=God Rest Ye Merry Gentlemen
TTITLE6=Winter Wonderland
TTITLE7=Sleigh Ride
TTITLE8=Have Yourself A Merry Little Christmas
TTITLE9=(There's No Place Like) Home For The Holidays
TTITLE10=Silver Bells
TTITLE11=Go Tell It On The Mountain
TTITLE12=The Wise Men's Journey
TTITLE13=O Little Town Of Bethlehem
EXTD=
EXTT0=
EXTT1=
EXTT2=
EXTT3=
EXTT4=
EXTT5=
EXTT6=
EXTT7=
EXTT8=
EXTT9=
EXTT10=
EXTT11=
EXTT12=
EXTT13=
PLAYORDER=
